<?xml version="1.0" encoding="UTF-8" standalone="no"?>
<!-- Created with Inkscape (http://www.inkscape.org/) -->

<svg
   xmlns:dc="http://purl.org/dc/elements/1.1/"
   xmlns:cc="http://creativecommons.org/ns#"
   xmlns:rdf="http://www.w3.org/1999/02/22-rdf-syntax-ns#"
   xmlns:svg="http://www.w3.org/2000/svg"
   xmlns="http://www.w3.org/2000/svg"
   xmlns:sodipodi="http://sodipodi.sourceforge.net/DTD/sodipodi-0.dtd"
   xmlns:inkscape="http://www.inkscape.org/namespaces/inkscape"
   width="297mm"
   height="210mm"
   viewBox="0 0 1052.3623 744.09446"
   id="svg2"
   version="1.1"
   inkscape:version="0.91 r13725"
   sodipodi:docname="logo2.svg">
  <defs
     id="defs4" />
  <sodipodi:namedview
     id="base"
     pagecolor="#ffffff"
     bordercolor="#666666"
     borderopacity="1.0"
     inkscape:pageopacity="0.0"
     inkscape:pageshadow="2"
     inkscape:zoom="0.24748737"
     inkscape:cx="-678.93397"
     inkscape:cy="-108.69702"
     inkscape:document-units="px"
     inkscape:current-layer="layer1"
     showgrid="false"
     inkscape:window-width="1858"
     inkscape:window-height="1061"
     inkscape:window-x="58"
     inkscape:window-y="-4"
     inkscape:window-maximized="1"
     units="mm" />
  <metadata
     id="metadata7">
    <rdf:RDF>
      <cc:Work
         rdf:about="">
        <dc:format>image/svg+xml</dc:format>
        <dc:type
           rdf:resource="http://purl.org/dc/dcmitype/StillImage" />
        <dc:title></dc:title>
      </cc:Work>
    </rdf:RDF>
  </metadata>
  <g
     inkscape:label="Layer 1"
     inkscape:groupmode="layer"
     id="layer1"
     transform="translate(0,-308.26788)">
    <path
       inkscape:connector-curvature="0"
       id="path4250"
       d="m 29.24076,691.74336 0,-13.91695 7.74408,-0.007 c 4.259271,-0.003 8.047154,-0.19844 8.417503,-0.43257 0.595008,-0.37612 0.673411,-11.11857 0.673411,-92.26543 0,-81.14685 -0.07837,-91.88932 -0.673411,-92.26544 -0.383532,-0.24245 -6.245313,-0.42865 -13.617641,-0.43257 -7.400039,-0.003 -12.880165,-0.1785 -12.79461,-0.40757 0.08226,-0.22039 4.190062,-6.47791 9.128328,-13.90559 l 8.978649,-13.50488 22.558936,-0.0118 22.558934,-0.0118 0,51.57505 0,51.57505 1.010098,0.2707 c 0.555561,0.14888 8.092734,0.27346 16.749222,0.27684 11.911731,0.005 15.926211,-0.13068 16.508491,-0.55646 0.51667,-0.37778 1.13031,-2.34147 1.86824,-5.97848 4.8536,-23.92142 16.1404,-44.98573 33.18389,-61.93025 9.61332,-9.55752 20.26882,-17.19801 31.91467,-22.88432 17.35106,-8.47199 34.12089,-12.34813 53.42315,-12.34813 28.03093,0 54.09694,9.17169 76.09431,26.77483 5.0337,4.02813 13.75513,12.7973 18.01996,18.11856 9.95452,12.42031 17.81762,27.62261 22.15368,42.83135 5.10925,17.92087 5.83157,38.54269 2.00885,57.35391 -3.66545,18.03708 -12.02981,35.8252 -23.88179,50.7881 -4.29833,5.42659 -12.95615,14.14824 -18.3007,18.43556 -16.65082,13.35714 -37.27003,22.43046 -58.36142,25.6815 -7.21476,1.11207 -23.48337,1.36133 -31.10311,0.47653 -27.61942,-3.20716 -52.06748,-14.88961 -71.51879,-34.17516 -9.59928,-9.51751 -16.36382,-18.70959 -22.49519,-30.5679 -5.91428,-11.43846 -10.28844,-24.89076 -12.02984,-36.99667 -0.40846,-2.8395 -0.92531,-5.61728 -1.14855,-6.17284 l -0.40588,-1.0101 -16.134511,0 c -8.873982,0 -16.454075,0.12262 -16.844644,0.2725 -0.640262,0.24568 -0.710136,4.23863 -0.710136,40.57616 l 0,40.30368 1.010098,0.27069 c 0.555561,0.14888 4.292951,0.27345 8.305271,0.27683 l 7.295181,0.006 0,13.91696 0,13.91695 -34.792377,0 -34.792352,0 0,-13.91695 z M 250.50758,669.9478 c 43.33654,-6.3183 74.72298,-43.80106 73.09737,-87.29541 -0.83002,-22.20926 -9.17463,-41.2388 -25.00128,-57.01461 -8.68478,-8.65688 -17.60576,-14.65263 -27.8808,-18.73863 -11.27645,-4.48421 -19.5017,-6.05922 -31.82997,-6.09498 -9.4394,-0.0273 -13.873,0.5094 -22.22223,2.6904 -29.42691,7.68698 -52.87121,31.24958 -60.56825,60.87394 -2.58553,9.95111 -3.30346,22.99508 -1.8389,33.40976 5.23784,37.24683 34.75573,66.64107 72.50817,72.20448 5.54609,0.81731 18.01635,0.79895 23.73589,-0.035 z m 143.71648,-84.82627 0,-120.53878 17.95737,0 17.95735,0 0,41.93862 c 0,23.06623 0.12262,42.25816 0.27253,42.64873 0.14984,0.39057 0.53987,0.71011 0.86665,0.71011 0.32683,0 17.5186,-19.19193 38.20394,-42.64872 l 37.60971,-42.64874 27.13753,0 c 25.80224,0 27.10443,0.0386 26.46487,0.78564 -0.36993,0.4321 -16.70077,19.67452 -36.29079,42.76096 -19.59001,23.08643 -36.62302,43.13856 -37.8512,44.56028 -2.04995,2.37295 -2.19009,2.67927 -1.70905,3.73508 0.28822,0.63256 19.98605,34.01482 43.77301,74.18277 23.7869,40.16795 43.48893,73.48718 43.7822,74.04273 l 0.53322,1.01012 -23.75463,0 -23.75464,0 -34.51036,-57.5758 c -29.1171,-48.57794 -34.66478,-57.5758 -35.49846,-57.5758 -0.74268,0 -3.9772,3.51252 -13.01909,14.13801 l -12.03096,14.13798 -0.11877,43.43779 -0.11884,43.43782 -17.95076,0 -17.95083,0 z m 280.00671,120.0761 c -14.41307,-1.63103 -27.40136,-5.43213 -40.50041,-11.85265 -31.64859,-15.51261 -55.0638,-44.22761 -63.77254,-78.20681 -2.73693,-10.6788 -3.51218,-17.3044 -3.51218,-30.01664 0,-12.71223 0.77525,-19.33783 3.51218,-30.01663 8.65512,-33.76998 31.98934,-62.52058 63.24183,-77.92144 17.69458,-8.71971 34.24313,-12.60071 53.72939,-12.60071 19.53469,0 36.40191,3.9486 53.87082,12.61116 23.8773,11.84029 42.70603,30.7924 54.59563,54.95341 5.75565,11.69606 9.52206,24.05775 11.48987,37.71046 0.35391,2.45543 0.58236,8.44311 0.58236,15.26375 0,15.27724 -1.39036,24.29862 -5.81197,37.71046 -7.82715,23.74173 -22.32115,43.91645 -42.22386,58.77286 -16.58794,12.38208 -33.56497,19.49419 -54.81815,22.96475 -5.18005,0.84587 -24.86279,1.25272 -30.383,0.62803 z m 31.32903,-36.07591 c 16.30099,-3.47343 30.01735,-10.65376 41.66209,-21.80942 8.06465,-7.726 13.47345,-15.04974 18.07935,-24.48031 18.52396,-37.92736 6.12598,-83.95424 -28.98946,-107.62214 -26.93822,-18.15645 -61.58609,-19.46275 -89.7868,-3.38517 -9.70016,5.53019 -19.77343,14.39488 -26.15421,23.01624 -19.31361,26.09541 -22.24612,60.14384 -7.67292,89.08653 12.13521,24.10084 34.61144,40.82884 61.21211,45.55745 5.94119,1.05612 6.36926,1.08003 16.61055,0.92802 8.29289,-0.1231 10.41071,-0.30493 15.03929,-1.2912 z m 138.04724,-84.00019 0,-120.53878 17.95542,0 17.95539,0 0.11425,49.94391 0.11414,49.94392 51.91125,0.11412 51.91136,0.11414 0.27106,-1.01198 c 0.14919,-0.55659 0.2739,-23.08269 0.27736,-50.05802 l 0.0122,-49.04604 18.63093,0 18.6307,0 0,120.53877 0,120.5388 -18.6307,0 -18.63093,0 0,-52.04428 c 0,-46.71441 -0.0722,-52.11653 -0.70544,-52.74975 -0.63308,-0.63304 -5.92985,-0.70547 -51.59061,-0.70547 -27.98692,0 -51.20479,0.12263 -51.59536,0.27251 -0.64194,0.24633 -0.71013,5.31149 -0.71013,52.74974 l 0,52.47725 -17.95737,0 -17.95736,0 0,-120.5388 z"
       style="fill:#00a1b9;fill-opacity:1"
       sodipodi:nodetypes="ccccssccscccccssssssssssssssssssscscscssccccccccssssssssccccccscsscscsccsscccssscccccccsssssssssssssccsssssssssscccccccccscccccccscscsccccc" />
    <path
       inkscape:connector-curvature="0"
       id="path4248"
       d="m 230.27319,606.6517 c -7.69193,-2.07153 -14.03692,-8.46385 -16.04192,-16.16162 -1.35651,-5.2079 -0.66999,-11.52917 1.77635,-16.35678 1.61242,-3.182 6.01844,-7.70173 9.11885,-9.35423 6.81945,-3.63474 15.22342,-3.70693 21.82936,-0.1875 3.04886,1.62434 7.93249,6.51423 9.40193,9.41406 3.36871,6.64781 3.37071,14.68216 0.006,21.3234 -1.60288,3.16313 -5.93523,7.57189 -9.09626,9.2567 -5.02282,2.67714 -11.70694,3.48974 -16.99367,2.06597 z"
       style="fill:#b50909;fill-opacity:1" />
    <g
       id="g4221"
       transform="matrix(0.36338346,0,0,0.36338346,382.71939,271.72675)"
       style="fill:#808080">
      <path
         d="m -961.11812,1413.4139 42.01483,0 0,-13.5189 -42.01483,0 0,-26.1102 42.9426,0 0,-13.3864 -56.46155,0 0,92.7772 56.59409,0 0,-13.3864 -43.07514,0 0,-26.3753 z"
         style="font-style:normal;font-variant:normal;font-weight:normal;font-stretch:normal;font-size:132.53889465px;line-height:125%;font-family:'Code Pro';-inkscape-font-specification:'Code Pro, Normal';text-align:start;letter-spacing:0px;word-spacing:0px;writing-mode:lr-tb;text-anchor:start;fill:#808080;fill-opacity:1;stroke:none;stroke-width:1px;stroke-linecap:butt;stroke-linejoin:miter;stroke-opacity:1"
         id="path4152"
         inkscape:connector-curvature="0" />
      <path
         d="m -825.80823,1360.3984 0,92.7772 13.51897,0 0,-92.7772 -13.51897,0 z m 16.03721,49.8346 32.47203,42.9426 16.6999,0 -35.7855,-46.6537 32.33949,-46.1235 -15.77213,0 -29.95379,43.0751 0,6.7595 z m -18.68799,-6.7595 -29.95379,-43.0751 -15.77213,0 32.33949,46.1235 -35.7855,46.6537 16.6999,0 32.47203,-42.9426 0,-6.7595 z"
         style="font-style:normal;font-variant:normal;font-weight:normal;font-stretch:normal;font-size:132.53889465px;line-height:125%;font-family:'Code Pro';-inkscape-font-specification:'Code Pro, Normal';text-align:start;letter-spacing:0px;word-spacing:0px;writing-mode:lr-tb;text-anchor:start;fill:#808080;fill-opacity:1;stroke:none;stroke-width:1px;stroke-linecap:butt;stroke-linejoin:miter;stroke-opacity:1"
         id="path4154"
         inkscape:connector-curvature="0" />
      <path
         d="m -706.24543,1413.4139 42.01482,0 0,-13.5189 -42.01482,0 0,-26.1102 42.9426,0 0,-13.3864 -56.46157,0 0,92.7772 56.59411,0 0,-13.3864 -43.07514,0 0,-26.3753 z"
         style="font-style:normal;font-variant:normal;font-weight:normal;font-stretch:normal;font-size:132.53889465px;line-height:125%;font-family:'Code Pro';-inkscape-font-specification:'Code Pro, Normal';text-align:start;letter-spacing:0px;word-spacing:0px;writing-mode:lr-tb;text-anchor:start;fill:#808080;fill-opacity:1;stroke:none;stroke-width:1px;stroke-linecap:butt;stroke-linejoin:miter;stroke-opacity:1"
         id="path4156"
         inkscape:connector-curvature="0" />
      <path
         d="m -603.75361,1373.3872 42.94261,0 0,-12.9888 -56.46157,0 0,92.7772 13.51896,0 0,-79.7884 z"
         style="font-style:normal;font-variant:normal;font-weight:normal;font-stretch:normal;font-size:132.53889465px;line-height:125%;font-family:'Code Pro';-inkscape-font-specification:'Code Pro, Normal';text-align:start;letter-spacing:0px;word-spacing:0px;writing-mode:lr-tb;text-anchor:start;fill:#808080;fill-opacity:1;stroke:none;stroke-width:1px;stroke-linecap:butt;stroke-linejoin:miter;stroke-opacity:1"
         id="path4158"
         inkscape:connector-curvature="0" />
      <path
         d="m -453.29869,1406.787 c 0,9.5428 -3.84362,17.8928 -9.80787,23.9895 -6.22933,6.2294 -14.84436,10.073 -23.98954,10.073 -9.14519,0 -17.62768,-3.8436 -23.72447,-10.073 -6.09679,-6.0967 -9.94041,-14.5792 -9.94041,-23.9895 0,-9.4103 3.84362,-17.8927 9.94041,-23.9895 6.09679,-6.2294 14.57928,-10.073 23.72447,-10.073 9.14518,0 17.76021,3.8436 23.98954,10.073 5.96425,6.0968 9.80787,14.4467 9.80787,23.9895 z m -80.98126,0 c 0,13.1214 5.43409,24.9173 13.78404,33.5323 8.48249,8.7476 20.41099,14.0492 33.39981,14.0492 13.12135,0 24.91731,-5.3016 33.53234,-14.0492 8.34995,-8.615 13.78404,-20.4109 13.78404,-33.5323 0,-13.1213 -5.43409,-24.9173 -13.78404,-33.5323 -8.61503,-8.6151 -20.41099,-14.0492 -33.53234,-14.0492 -12.98882,0 -24.91732,5.4341 -33.39981,14.0492 -8.34995,8.615 -13.78404,20.411 -13.78404,33.5323 z"
         style="font-style:normal;font-variant:normal;font-weight:normal;font-stretch:normal;font-size:132.53889465px;line-height:125%;font-family:'Code Pro';-inkscape-font-specification:'Code Pro, Normal';text-align:start;letter-spacing:0px;word-spacing:0px;writing-mode:lr-tb;text-anchor:start;fill:#808080;fill-opacity:1;stroke:none;stroke-width:1px;stroke-linecap:butt;stroke-linejoin:miter;stroke-opacity:1"
         id="path4160"
         inkscape:connector-curvature="0" />
      <path
         d="m -336.20522,1440.0543 0,-79.6559 -55.13618,0 -3.57855,54.606 c -0.79523,8.4825 -2.65077,20.411 -7.95233,25.9776 l -7.42218,1.458 0,25.58 13.38643,0 0,-14.8444 55.13618,0 0,14.8444 13.12135,0 0,-27.9657 -7.55472,0 z m -51.55763,0 c 5.96425,-8.0849 6.49441,-19.3507 7.1571,-33.7975 l 1.98809,-33.0021 28.6284,0 0,66.7996 -37.77359,0 z"
         style="font-style:normal;font-variant:normal;font-weight:normal;font-stretch:normal;font-size:132.53889465px;line-height:125%;font-family:'Code Pro';-inkscape-font-specification:'Code Pro, Normal';text-align:start;letter-spacing:0px;word-spacing:0px;writing-mode:lr-tb;text-anchor:start;fill:#808080;fill-opacity:1;stroke:none;stroke-width:1px;stroke-linecap:butt;stroke-linejoin:miter;stroke-opacity:1"
         id="path4162"
         inkscape:connector-curvature="0" />
      <path
         d="m -267.13267,1360.3984 -13.38643,0 0,92.7772 13.38643,0 0,-40.2918 39.23151,0 0,40.2918 13.51897,0 0,-92.7772 -13.51897,0 0,39.2315 -39.23151,0 0,-39.2315 z"
         style="font-style:normal;font-variant:normal;font-weight:normal;font-stretch:normal;font-size:132.53889465px;line-height:125%;font-family:'Code Pro';-inkscape-font-specification:'Code Pro, Normal';text-align:start;letter-spacing:0px;word-spacing:0px;writing-mode:lr-tb;text-anchor:start;fill:#808080;fill-opacity:1;stroke:none;stroke-width:1px;stroke-linecap:butt;stroke-linejoin:miter;stroke-opacity:1"
         id="path4164"
         inkscape:connector-curvature="0" />
      <path
         d="m -131.90937,1380.5443 13.91658,36.5807 -27.83316,0 13.91658,-36.5807 z m 27.70063,72.6313 14.314201,0 -37.243431,-93.9701 -9.80788,0 -37.24343,93.9701 14.44674,0 9.01265,-23.4594 37.64104,0 8.88011,23.4594 z"
         style="font-style:normal;font-variant:normal;font-weight:normal;font-stretch:normal;font-size:132.53889465px;line-height:125%;font-family:'Code Pro';-inkscape-font-specification:'Code Pro, Normal';text-align:start;letter-spacing:0px;word-spacing:0px;writing-mode:lr-tb;text-anchor:start;fill:#808080;fill-opacity:1;stroke:none;stroke-width:1px;stroke-linecap:butt;stroke-linejoin:miter;stroke-opacity:1"
         id="path4166"
         inkscape:connector-curvature="0" />
      <path
         d="m -2.8847086,1406.1243 -15.6395904,0 c -11.265807,0 -16.832437,-8.0849 -16.832437,-16.1697 0,-7.9524 5.56663,-16.0372 16.832437,-16.0372 l 20.5435306,0 0,79.2582 13.2538894,0 0,-92.7772 -33.79742,0 c -20.145907,0 -30.218867,14.8443 -30.218867,29.5562 0,13.1213 8.08488,25.58 23.989537,28.3633 l -29.291087,34.8577 17.36259,0 33.7974174,-40.6894 0,-6.3619 z"
         style="font-style:normal;font-variant:normal;font-weight:normal;font-stretch:normal;font-size:132.53889465px;line-height:125%;font-family:'Code Pro';-inkscape-font-specification:'Code Pro, Normal';text-align:start;letter-spacing:0px;word-spacing:0px;writing-mode:lr-tb;text-anchor:start;fill:#808080;fill-opacity:1;stroke:none;stroke-width:1px;stroke-linecap:butt;stroke-linejoin:miter;stroke-opacity:1"
         id="path4168"
         inkscape:connector-curvature="0" />
      <path
         d="m 319.68166,1360.5309 -47.84654,0 0,12.7238 17.23006,0 0,67.0646 -17.23006,0 0,12.8563 47.84654,0 0,-12.8563 -17.23006,0 0,-67.0646 17.23006,0 0,-12.7238 z"
         style="font-style:normal;font-variant:normal;font-weight:normal;font-stretch:normal;font-size:132.53889465px;line-height:125%;font-family:'Code Pro';-inkscape-font-specification:'Code Pro, Normal';text-align:start;letter-spacing:0px;word-spacing:0px;writing-mode:lr-tb;text-anchor:start;fill:#808080;fill-opacity:1;stroke:none;stroke-width:1px;stroke-linecap:butt;stroke-linejoin:miter;stroke-opacity:1"
         id="path4170"
         inkscape:connector-curvature="0" />
      <path
         d="m 407.02245,1453.1756 0,-80.0535 27.96571,0 0,-12.7237 -69.45038,0 0,12.7237 28.09824,0 0,80.0535 13.38643,0 z"
         style="font-style:normal;font-variant:normal;font-weight:normal;font-stretch:normal;font-size:132.53889465px;line-height:125%;font-family:'Code Pro';-inkscape-font-specification:'Code Pro, Normal';text-align:start;letter-spacing:0px;word-spacing:0px;writing-mode:lr-tb;text-anchor:start;fill:#808080;fill-opacity:1;stroke:none;stroke-width:1px;stroke-linecap:butt;stroke-linejoin:miter;stroke-opacity:1"
         id="path4172"
         inkscape:connector-curvature="0" />
      <path
         d="m 477.32455,1417.5227 35.78551,0 0,-11.0008 -35.78551,0 0,11.0008 z"
         style="font-style:normal;font-variant:normal;font-weight:normal;font-stretch:normal;font-size:132.53889465px;line-height:125%;font-family:'Code Pro';-inkscape-font-specification:'Code Pro, Normal';text-align:start;letter-spacing:0px;word-spacing:0px;writing-mode:lr-tb;text-anchor:start;fill:#808080;fill-opacity:1;stroke:none;stroke-width:1px;stroke-linecap:butt;stroke-linejoin:miter;stroke-opacity:1"
         id="path4174"
         inkscape:connector-curvature="0" />
      <path
         d="m 565.52865,1360.3984 0,92.7772 13.51896,0 0,-92.7772 -13.51896,0 z m 16.0372,49.8346 35.38789,42.9426 17.49513,0 -39.09897,-46.6537 35.38789,-46.1235 -16.43483,0 -32.73711,43.0751 0,6.7595 z"
         style="font-style:normal;font-variant:normal;font-weight:normal;font-stretch:normal;font-size:132.53889465px;line-height:125%;font-family:'Code Pro';-inkscape-font-specification:'Code Pro, Normal';text-align:start;letter-spacing:0px;word-spacing:0px;writing-mode:lr-tb;text-anchor:start;fill:#808080;fill-opacity:1;stroke:none;stroke-width:1px;stroke-linecap:butt;stroke-linejoin:miter;stroke-opacity:1"
         id="path4176"
         inkscape:connector-curvature="0" />
      <path
         d="m 742.9602,1406.787 c 0,9.5428 -3.84363,17.8928 -9.80788,23.9895 -6.22932,6.2294 -14.84435,10.073 -23.98954,10.073 -9.14518,0 -17.62767,-3.8436 -23.72446,-10.073 -6.09679,-6.0967 -9.94042,-14.5792 -9.94042,-23.9895 0,-9.4103 3.84363,-17.8927 9.94042,-23.9895 6.09679,-6.2294 14.57928,-10.073 23.72446,-10.073 9.14519,0 17.76022,3.8436 23.98954,10.073 5.96425,6.0968 9.80788,14.4467 9.80788,23.9895 z m -80.98126,0 c 0,13.1214 5.43409,24.9173 13.78404,33.5323 8.48249,8.7476 20.41099,14.0492 33.3998,14.0492 13.12135,0 24.91732,-5.3016 33.53234,-14.0492 8.34995,-8.615 13.78405,-20.4109 13.78405,-33.5323 0,-13.1213 -5.4341,-24.9173 -13.78405,-33.5323 -8.61502,-8.6151 -20.41099,-14.0492 -33.53234,-14.0492 -12.98881,0 -24.91731,5.4341 -33.3998,14.0492 -8.34995,8.615 -13.78404,20.411 -13.78404,33.5323 z"
         style="font-style:normal;font-variant:normal;font-weight:normal;font-stretch:normal;font-size:132.53889465px;line-height:125%;font-family:'Code Pro';-inkscape-font-specification:'Code Pro, Normal';text-align:start;letter-spacing:0px;word-spacing:0px;writing-mode:lr-tb;text-anchor:start;fill:#808080;fill-opacity:1;stroke:none;stroke-width:1px;stroke-linecap:butt;stroke-linejoin:miter;stroke-opacity:1"
         id="path4178"
         inkscape:connector-curvature="0" />
      <path
         d="m 810.61273,1360.3984 -13.38643,0 0,92.7772 13.38643,0 0,-40.2918 39.23151,0 0,40.2918 13.51897,0 0,-92.7772 -13.51897,0 0,39.2315 -39.23151,0 0,-39.2315 z"
         style="font-style:normal;font-variant:normal;font-weight:normal;font-stretch:normal;font-size:132.53889465px;line-height:125%;font-family:'Code Pro';-inkscape-font-specification:'Code Pro, Normal';text-align:start;letter-spacing:0px;word-spacing:0px;writing-mode:lr-tb;text-anchor:start;fill:#808080;fill-opacity:1;stroke:none;stroke-width:1px;stroke-linecap:butt;stroke-linejoin:miter;stroke-opacity:1"
         id="path4180"
         inkscape:connector-curvature="0" />
      <path
         d="m 952.11765,1368.7483 c -26.2427,1.1929 -40.15928,17.7603 -40.15928,37.9062 0,20.5435 13.78404,36.7132 40.15928,37.9061 l 0,8.615 13.38643,0 0,-8.7476 c 25.84512,-1.3253 39.89422,-17.23 39.89422,-38.0386 0,-19.3507 -13.7841,-36.5807 -39.89422,-37.6411 l 0,-8.7475 -13.38643,0 0,8.7475 z m 13.12135,11.6635 c 16.83244,1.1928 26.3752,11.2658 26.3752,26.3752 0,15.1094 -9.54276,25.0499 -26.3752,26.2427 l 0,-52.6179 z m -39.36405,26.1101 c 0,-14.9769 9.41026,-25.3149 26.50778,-26.1101 l 0,52.6179 c -16.83244,-0.9278 -26.50778,-11.9285 -26.50778,-26.5078 z"
         style="font-style:normal;font-variant:normal;font-weight:normal;font-stretch:normal;font-size:132.53889465px;line-height:125%;font-family:'Code Pro';-inkscape-font-specification:'Code Pro, Normal';text-align:start;letter-spacing:0px;word-spacing:0px;writing-mode:lr-tb;text-anchor:start;fill:#808080;fill-opacity:1;stroke:none;stroke-width:1px;stroke-linecap:butt;stroke-linejoin:miter;stroke-opacity:1"
         id="path4182"
         inkscape:connector-curvature="0" />
      <path
         d="m 1063.7096,1413.4139 42.0148,0 0,-13.5189 -42.0148,0 0,-26.1102 42.9426,0 0,-13.3864 -56.4616,0 0,92.7772 56.5941,0 0,-13.3864 -43.0751,0 0,-26.3753 z"
         style="font-style:normal;font-variant:normal;font-weight:normal;font-stretch:normal;font-size:132.53889465px;line-height:125%;font-family:'Code Pro';-inkscape-font-specification:'Code Pro, Normal';text-align:start;letter-spacing:0px;word-spacing:0px;writing-mode:lr-tb;text-anchor:start;fill:#808080;fill-opacity:1;stroke:none;stroke-width:1px;stroke-linecap:butt;stroke-linejoin:miter;stroke-opacity:1"
         id="path4184"
         inkscape:connector-curvature="0" />
      <path
         d="m 1156.3447,1360.3984 0,92.7772 13.519,0 0,-30.8815 20.411,0 c 20.0133,0 30.0863,-15.3746 30.0863,-30.8816 0,-15.5071 -10.073,-31.0141 -30.0863,-31.0141 l -33.93,0 z m 13.519,48.6418 0,-35.1228 20.411,0 c 11.2657,0 16.8324,8.7475 16.8324,17.6276 0,8.7476 -5.5667,17.4952 -16.8324,17.4952 l -20.411,0 z"
         style="font-style:normal;font-variant:normal;font-weight:normal;font-stretch:normal;font-size:132.53889465px;line-height:125%;font-family:'Code Pro';-inkscape-font-specification:'Code Pro, Normal';text-align:start;letter-spacing:0px;word-spacing:0px;writing-mode:lr-tb;text-anchor:start;fill:#808080;fill-opacity:1;stroke:none;stroke-width:1px;stroke-linecap:butt;stroke-linejoin:miter;stroke-opacity:1"
         id="path4186"
         inkscape:connector-curvature="0" />
      <path
         d="m 1274.0545,1413.4139 42.0149,0 0,-13.5189 -42.0149,0 0,-26.1102 42.9426,0 0,-13.3864 -56.4615,0 0,92.7772 56.5941,0 0,-13.3864 -43.0752,0 0,-26.3753 z"
         style="font-style:normal;font-variant:normal;font-weight:normal;font-stretch:normal;font-size:132.53889465px;line-height:125%;font-family:'Code Pro';-inkscape-font-specification:'Code Pro, Normal';text-align:start;letter-spacing:0px;word-spacing:0px;writing-mode:lr-tb;text-anchor:start;fill:#808080;fill-opacity:1;stroke:none;stroke-width:1px;stroke-linecap:butt;stroke-linejoin:miter;stroke-opacity:1"
         id="path4188"
         inkscape:connector-curvature="0" />
      <path
         d="m 1373.1987,1360.3984 -13.3864,0 0,92.7772 13.3864,0 0,-40.2918 39.2315,0 0,40.2918 13.519,0 0,-92.7772 -13.519,0 0,39.2315 -39.2315,0 0,-39.2315 z"
         style="font-style:normal;font-variant:normal;font-weight:normal;font-stretch:normal;font-size:132.53889465px;line-height:125%;font-family:'Code Pro';-inkscape-font-specification:'Code Pro, Normal';text-align:start;letter-spacing:0px;word-spacing:0px;writing-mode:lr-tb;text-anchor:start;fill:#808080;fill-opacity:1;stroke:none;stroke-width:1px;stroke-linecap:butt;stroke-linejoin:miter;stroke-opacity:1"
         id="path4190"
         inkscape:connector-curvature="0" />
      <path
         d="m 1534.2871,1440.8495 0,-80.4511 -13.784,0 0,80.4511 -34.3276,0 0,-80.4511 -13.6515,0 0,92.7772 56.1965,0 0,18.8205 13.1214,0 0,-31.1466 -7.5548,0 z"
         style="font-style:normal;font-variant:normal;font-weight:normal;font-stretch:normal;font-size:132.53889465px;line-height:125%;font-family:'Code Pro';-inkscape-font-specification:'Code Pro, Normal';text-align:start;letter-spacing:0px;word-spacing:0px;writing-mode:lr-tb;text-anchor:start;fill:#808080;fill-opacity:1;stroke:none;stroke-width:1px;stroke-linecap:butt;stroke-linejoin:miter;stroke-opacity:1"
         id="path4192"
         inkscape:connector-curvature="0" />
      <path
         d="m 1653.834,1453.1756 0,-92.7772 -10.338,0 -45.1959,65.3417 0,-65.3417 -13.2538,0 0,92.7772 10.6031,0 44.7982,-64.8115 0,64.8115 13.3864,0 z"
         style="font-style:normal;font-variant:normal;font-weight:normal;font-stretch:normal;font-size:132.53889465px;line-height:125%;font-family:'Code Pro';-inkscape-font-specification:'Code Pro, Normal';text-align:start;letter-spacing:0px;word-spacing:0px;writing-mode:lr-tb;text-anchor:start;fill:#808080;fill-opacity:1;stroke:none;stroke-width:1px;stroke-linecap:butt;stroke-linejoin:miter;stroke-opacity:1"
         id="path4194"
         inkscape:connector-curvature="0" />
      <path
         d="m 1747.6958,1406.1243 -15.6396,0 c -11.2659,0 -16.8325,-8.0849 -16.8325,-16.1697 0,-7.9524 5.5666,-16.0372 16.8325,-16.0372 l 20.5435,0 0,79.2582 13.2539,0 0,-92.7772 -33.7974,0 c -20.146,0 -30.2189,14.8443 -30.2189,29.5562 0,13.1213 8.0848,25.58 23.9895,28.3633 l -29.2911,34.8577 17.3626,0 33.7975,-40.6894 0,-6.3619 z"
         style="font-style:normal;font-variant:normal;font-weight:normal;font-stretch:normal;font-size:132.53889465px;line-height:125%;font-family:'Code Pro';-inkscape-font-specification:'Code Pro, Normal';text-align:start;letter-spacing:0px;word-spacing:0px;writing-mode:lr-tb;text-anchor:start;fill:#808080;fill-opacity:1;stroke:none;stroke-width:1px;stroke-linecap:butt;stroke-linejoin:miter;stroke-opacity:1"
         id="path4196"
         inkscape:connector-curvature="0" />
    </g>
  </g>
</svg>
